# xmcd
#
# Track frame offsets:
#       150
#       15689
#       36857
#       59920
#       85100
#       105446
#       120798
#       140909
#       159123
#       175408
#       197697
#       219701
#       238347
#       257698
#       280705
#       298850
#       310252
#       327389
#       338749
#
# Disc length: 4608 seconds
#
# Revision: 0
# Processed by: cddbd v1.5.1PL0 Copyright (c) Steve Scherf et al.
# Submitted via: WaveLab 4.01
#
DISCID=1c11fe13
DTITLE=Manny Charlton - Say The Word
DYEAR=2004
DGENRE=
TTITLE0=Say The Word
TTITLE1=The Crooked Line
TTITLE2=My Father's Eyes
TTITLE3=This Month's Messiah
TTITLE4=Parade
TTITLE5=Crushed By The Girl
TTITLE6=Movin' Day
TTITLE7=The Price
TTITLE8=For Livin' A Lie
TTITLE9=Just A Pretend
TTITLE10=Walk By Yourself
TTITLE11=Where I Live
TTITLE12=Since The Day
TTITLE13=Boots Of Spanish Leather
TTITLE14=44 Years
TTITLE15=Ten Past Seven Blues
TTITLE16=Cactus Rose Cafe
TTITLE17=And Your Religion
TTITLE18=9-11
EXTD=
EXTT0=
EXTT1=
EXTT2=
EXTT3=
EXTT4=
EXTT5=
EXTT6=
EXTT7=
EXTT8=
EXTT9=
EXTT10=
EXTT11=
EXTT12=
EXTT13=
EXTT14=
EXTT15=
EXTT16=
EXTT17=
EXTT18=
PLAYORDER=
